<?xml version="1.0" standalone="no"?>
<!DOCTYPE svg PUBLIC "-//W3C//DTD SVG 20010904//EN"
 "http://www.w3.org/TR/2001/REC-SVG-20010904/DTD/svg10.dtd">
<svg version="1.0" xmlns="http://www.w3.org/2000/svg"
 width="320.000000pt" height="320.000000pt" viewBox="0 0 320.000000 320.000000"
 preserveAspectRatio="xMidYMid meet">
<metadata>
Created by potrace 1.11, written by Peter Selinger 2001-2013
</metadata>
<g transform="translate(0.000000,320.000000) scale(0.100000,-0.100000)"
fill="#000000" stroke="none">
<path d="M1469 2996 c-2 -2 -30 -7 -63 -11 -212 -24 -466 -130 -653 -271 -287
-219 -496 -574 -540 -919 -9 -76 -10 -314 -1 -380 80 -569 486 -1026 1040
-1171 119 -31 161 -36 328 -39 157 -3 226 5 365 40 312 79 587 265 785 530
105 140 206 367 239 535 6 30 13 69 17 85 9 46 12 329 4 377 -5 24 -10 61 -13
83 -7 49 -49 193 -76 263 -121 307 -366 575 -666 729 -118 60 -294 119 -383
129 -18 1 -37 6 -43 10 -12 7 -333 16 -340 10z"/>
</g>
</svg>
